<mxfile host="Electron" agent="Mozilla/5.0 (Windows NT 10.0; Win64; x64) AppleWebKit/537.36 (KHTML, like Gecko) draw.io/26.2.2 Chrome/134.0.6998.178 Electron/35.1.2 Safari/537.36" version="26.2.2">
  <diagram name="PÃ¡gina-1" id="tDC00WRoiKJsJ1EHsQr3">
    <mxGraphModel dx="772" dy="777" grid="1" gridSize="10" guides="1" tooltips="1" connect="1" arrows="1" fold="1" page="1" pageScale="1" pageWidth="827" pageHeight="1169" math="0" shadow="0">
      <root>
        <mxCell id="0" />
        <mxCell id="1" parent="0" />
        <mxCell id="XfgdqpQMyzvI71PNZ6HV-1" value="COMPETICIONES" style="whiteSpace=wrap;html=1;align=center;" parent="1" vertex="1">
          <mxGeometry x="290" y="280" width="110" height="40" as="geometry" />
        </mxCell>
        <mxCell id="XfgdqpQMyzvI71PNZ6HV-2" value="" style="endArrow=none;html=1;rounded=0;" parent="1" edge="1">
          <mxGeometry relative="1" as="geometry">
            <mxPoint x="130" y="350" as="sourcePoint" />
            <mxPoint x="290" y="300" as="targetPoint" />
            <Array as="points">
              <mxPoint x="130" y="300" />
              <mxPoint x="200" y="300" />
            </Array>
          </mxGeometry>
        </mxCell>
        <mxCell id="XfgdqpQMyzvI71PNZ6HV-3" value="" style="endArrow=none;html=1;rounded=0;" parent="1" edge="1">
          <mxGeometry relative="1" as="geometry">
            <mxPoint x="400" y="300" as="sourcePoint" />
            <mxPoint x="550" y="340" as="targetPoint" />
            <Array as="points">
              <mxPoint x="500" y="300" />
              <mxPoint x="550" y="300" />
            </Array>
          </mxGeometry>
        </mxCell>
        <mxCell id="XfgdqpQMyzvI71PNZ6HV-4" value="Relationship" style="shape=rhombus;perimeter=rhombusPerimeter;whiteSpace=wrap;html=1;align=center;" parent="1" vertex="1">
          <mxGeometry x="160" y="277.5" width="60" height="45" as="geometry" />
        </mxCell>
        <mxCell id="XfgdqpQMyzvI71PNZ6HV-5" value="CLUBES" style="whiteSpace=wrap;html=1;align=center;" parent="1" vertex="1">
          <mxGeometry x="500" y="340" width="80" height="30" as="geometry" />
        </mxCell>
        <mxCell id="XfgdqpQMyzvI71PNZ6HV-6" value="Relationship" style="shape=rhombus;perimeter=rhombusPerimeter;whiteSpace=wrap;html=1;align=center;" parent="1" vertex="1">
          <mxGeometry x="390" y="340" width="70" height="40" as="geometry" />
        </mxCell>
        <mxCell id="XfgdqpQMyzvI71PNZ6HV-7" value="" style="line;strokeWidth=1;rotatable=0;dashed=0;labelPosition=right;align=left;verticalAlign=middle;spacingTop=0;spacingLeft=6;points=[];portConstraint=eastwest;" parent="1" vertex="1">
          <mxGeometry x="460" y="355" width="40" height="10" as="geometry" />
        </mxCell>
        <mxCell id="XfgdqpQMyzvI71PNZ6HV-8" value="" style="endArrow=none;html=1;rounded=0;" parent="1" source="XfgdqpQMyzvI71PNZ6HV-12" edge="1">
          <mxGeometry relative="1" as="geometry">
            <mxPoint x="285" y="370" as="sourcePoint" />
            <mxPoint x="285" y="470" as="targetPoint" />
          </mxGeometry>
        </mxCell>
        <mxCell id="XfgdqpQMyzvI71PNZ6HV-9" value="" style="line;strokeWidth=1;rotatable=0;dashed=0;labelPosition=right;align=left;verticalAlign=middle;spacingTop=0;spacingLeft=6;points=[];portConstraint=eastwest;" parent="1" vertex="1">
          <mxGeometry x="340" y="355" width="50" height="10" as="geometry" />
        </mxCell>
        <mxCell id="XfgdqpQMyzvI71PNZ6HV-10" value="CAMPOS" style="whiteSpace=wrap;html=1;align=center;" parent="1" vertex="1">
          <mxGeometry x="250" y="340" width="90" height="30" as="geometry" />
        </mxCell>
        <mxCell id="XfgdqpQMyzvI71PNZ6HV-11" value="HOMOLOGACION" style="whiteSpace=wrap;html=1;align=center;" parent="1" vertex="1">
          <mxGeometry x="230" y="470" width="110" height="30" as="geometry" />
        </mxCell>
        <mxCell id="XfgdqpQMyzvI71PNZ6HV-13" value="" style="endArrow=none;html=1;rounded=0;" parent="1" target="XfgdqpQMyzvI71PNZ6HV-12" edge="1">
          <mxGeometry relative="1" as="geometry">
            <mxPoint x="285" y="370" as="sourcePoint" />
            <mxPoint x="285" y="470" as="targetPoint" />
          </mxGeometry>
        </mxCell>
        <mxCell id="XfgdqpQMyzvI71PNZ6HV-12" value="Relationship" style="shape=rhombus;perimeter=rhombusPerimeter;whiteSpace=wrap;html=1;align=center;" parent="1" vertex="1">
          <mxGeometry x="252.5" y="400" width="65" height="40" as="geometry" />
        </mxCell>
        <mxCell id="XfgdqpQMyzvI71PNZ6HV-14" value="" style="endArrow=none;html=1;rounded=0;" parent="1" source="XfgdqpQMyzvI71PNZ6HV-16" edge="1">
          <mxGeometry relative="1" as="geometry">
            <mxPoint x="539.6" y="370" as="sourcePoint" />
            <mxPoint x="539.6" y="520" as="targetPoint" />
          </mxGeometry>
        </mxCell>
        <mxCell id="XfgdqpQMyzvI71PNZ6HV-15" value="EQUIPOS" style="whiteSpace=wrap;html=1;align=center;" parent="1" vertex="1">
          <mxGeometry x="500" y="480" width="80" height="30" as="geometry" />
        </mxCell>
        <mxCell id="XfgdqpQMyzvI71PNZ6HV-17" value="" style="endArrow=none;html=1;rounded=0;" parent="1" target="XfgdqpQMyzvI71PNZ6HV-16" edge="1">
          <mxGeometry relative="1" as="geometry">
            <mxPoint x="539.6" y="370" as="sourcePoint" />
            <mxPoint x="539.6" y="520" as="targetPoint" />
          </mxGeometry>
        </mxCell>
        <mxCell id="XfgdqpQMyzvI71PNZ6HV-16" value="Relationship" style="shape=rhombus;perimeter=rhombusPerimeter;whiteSpace=wrap;html=1;align=center;" parent="1" vertex="1">
          <mxGeometry x="505" y="400" width="70" height="40" as="geometry" />
        </mxCell>
        <mxCell id="XfgdqpQMyzvI71PNZ6HV-18" value="" style="endArrow=none;html=1;rounded=0;" parent="1" source="XfgdqpQMyzvI71PNZ6HV-20" edge="1">
          <mxGeometry relative="1" as="geometry">
            <mxPoint x="540" y="520" as="sourcePoint" />
            <mxPoint x="540" y="580" as="targetPoint" />
          </mxGeometry>
        </mxCell>
        <mxCell id="XfgdqpQMyzvI71PNZ6HV-19" value="" style="endArrow=none;html=1;rounded=0;" parent="1" target="XfgdqpQMyzvI71PNZ6HV-20" edge="1">
          <mxGeometry relative="1" as="geometry">
            <mxPoint x="540" y="520" as="sourcePoint" />
            <mxPoint x="540" y="650" as="targetPoint" />
          </mxGeometry>
        </mxCell>
        <mxCell id="XfgdqpQMyzvI71PNZ6HV-20" value="" style="triangle;whiteSpace=wrap;html=1;rotation=90;" parent="1" vertex="1">
          <mxGeometry x="527.5" y="510" width="25" height="55" as="geometry" />
        </mxCell>
        <mxCell id="XfgdqpQMyzvI71PNZ6HV-21" value="" style="endArrow=none;html=1;rounded=0;" parent="1" edge="1">
          <mxGeometry relative="1" as="geometry">
            <mxPoint x="460" y="580" as="sourcePoint" />
            <mxPoint x="620" y="580" as="targetPoint" />
          </mxGeometry>
        </mxCell>
        <mxCell id="XfgdqpQMyzvI71PNZ6HV-22" value="" style="endArrow=none;html=1;rounded=0;" parent="1" edge="1">
          <mxGeometry relative="1" as="geometry">
            <mxPoint x="450" y="630" as="sourcePoint" />
            <mxPoint x="500" y="580" as="targetPoint" />
            <Array as="points">
              <mxPoint x="450" y="580" />
            </Array>
          </mxGeometry>
        </mxCell>
        <mxCell id="XfgdqpQMyzvI71PNZ6HV-23" value="" style="endArrow=none;html=1;rounded=0;" parent="1" edge="1">
          <mxGeometry relative="1" as="geometry">
            <mxPoint x="580" y="580" as="sourcePoint" />
            <mxPoint x="640" y="630" as="targetPoint" />
            <Array as="points">
              <mxPoint x="640" y="580" />
            </Array>
          </mxGeometry>
        </mxCell>
        <mxCell id="XfgdqpQMyzvI71PNZ6HV-24" value="LOCAL" style="whiteSpace=wrap;html=1;align=center;" parent="1" vertex="1">
          <mxGeometry x="414" y="600" width="80" height="30" as="geometry" />
        </mxCell>
        <mxCell id="XfgdqpQMyzvI71PNZ6HV-25" value="VISITANTE" style="whiteSpace=wrap;html=1;align=center;" parent="1" vertex="1">
          <mxGeometry x="610" y="600" width="70" height="30" as="geometry" />
        </mxCell>
        <mxCell id="XfgdqpQMyzvI71PNZ6HV-27" value="EMPLEADOS" style="whiteSpace=wrap;html=1;align=center;" parent="1" vertex="1">
          <mxGeometry x="940" y="345" width="100" height="30" as="geometry" />
        </mxCell>
        <mxCell id="XfgdqpQMyzvI71PNZ6HV-28" value="" style="endArrow=none;html=1;rounded=0;entryX=0;entryY=0.5;entryDx=0;entryDy=0;" parent="1" source="XfgdqpQMyzvI71PNZ6HV-29" target="XfgdqpQMyzvI71PNZ6HV-27" edge="1">
          <mxGeometry relative="1" as="geometry">
            <mxPoint x="580" y="360" as="sourcePoint" />
            <mxPoint x="740" y="360" as="targetPoint" />
          </mxGeometry>
        </mxCell>
        <mxCell id="XfgdqpQMyzvI71PNZ6HV-30" value="" style="endArrow=none;html=1;rounded=0;" parent="1" target="XfgdqpQMyzvI71PNZ6HV-29" edge="1">
          <mxGeometry relative="1" as="geometry">
            <mxPoint x="580" y="360" as="sourcePoint" />
            <mxPoint x="740" y="360" as="targetPoint" />
          </mxGeometry>
        </mxCell>
        <mxCell id="XfgdqpQMyzvI71PNZ6HV-29" value="Relationship" style="shape=rhombus;perimeter=rhombusPerimeter;whiteSpace=wrap;html=1;align=center;" parent="1" vertex="1">
          <mxGeometry x="620" y="337.5" width="70" height="45" as="geometry" />
        </mxCell>
        <mxCell id="XfgdqpQMyzvI71PNZ6HV-31" value="" style="endArrow=none;html=1;rounded=0;entryX=0.429;entryY=1.127;entryDx=0;entryDy=0;entryPerimeter=0;" parent="1" target="XfgdqpQMyzvI71PNZ6HV-25" edge="1">
          <mxGeometry relative="1" as="geometry">
            <mxPoint x="460" y="630" as="sourcePoint" />
            <mxPoint x="620" y="630" as="targetPoint" />
            <Array as="points">
              <mxPoint x="460" y="670" />
              <mxPoint x="550" y="670" />
              <mxPoint x="640" y="670" />
            </Array>
          </mxGeometry>
        </mxCell>
        <mxCell id="XfgdqpQMyzvI71PNZ6HV-32" value="Relationship" style="shape=rhombus;perimeter=rhombusPerimeter;whiteSpace=wrap;html=1;align=center;" parent="1" vertex="1">
          <mxGeometry x="510" y="640" width="76" height="50" as="geometry" />
        </mxCell>
        <mxCell id="XfgdqpQMyzvI71PNZ6HV-34" value="" style="endArrow=none;html=1;rounded=0;entryX=0.5;entryY=1;entryDx=0;entryDy=0;exitX=0.5;exitY=1;exitDx=0;exitDy=0;" parent="1" source="XfgdqpQMyzvI71PNZ6HV-36" target="XfgdqpQMyzvI71PNZ6HV-111" edge="1">
          <mxGeometry relative="1" as="geometry">
            <mxPoint x="590.0007228915664" y="802.4096385542168" as="sourcePoint" />
            <mxPoint x="1269.82" y="575" as="targetPoint" />
            <Array as="points">
              <mxPoint x="550" y="840" />
              <mxPoint x="590" y="840" />
              <mxPoint x="670" y="840" />
              <mxPoint x="900" y="840" />
              <mxPoint x="1295" y="840" />
            </Array>
          </mxGeometry>
        </mxCell>
        <mxCell id="XfgdqpQMyzvI71PNZ6HV-37" value="" style="endArrow=none;html=1;rounded=0;" parent="1" source="XfgdqpQMyzvI71PNZ6HV-35" target="XfgdqpQMyzvI71PNZ6HV-36" edge="1">
          <mxGeometry relative="1" as="geometry">
            <mxPoint x="550" y="690" as="sourcePoint" />
            <mxPoint x="550" y="860" as="targetPoint" />
          </mxGeometry>
        </mxCell>
        <mxCell id="XfgdqpQMyzvI71PNZ6HV-36" value="Relationship" style="shape=rhombus;perimeter=rhombusPerimeter;whiteSpace=wrap;html=1;align=center;" parent="1" vertex="1">
          <mxGeometry x="510" y="780" width="80" height="40" as="geometry" />
        </mxCell>
        <mxCell id="XfgdqpQMyzvI71PNZ6HV-38" value="" style="endArrow=none;html=1;rounded=0;" parent="1" target="XfgdqpQMyzvI71PNZ6HV-35" edge="1">
          <mxGeometry relative="1" as="geometry">
            <mxPoint x="550" y="690" as="sourcePoint" />
            <mxPoint x="550" y="760" as="targetPoint" />
          </mxGeometry>
        </mxCell>
        <mxCell id="XfgdqpQMyzvI71PNZ6HV-35" value="PARTIDOS" style="whiteSpace=wrap;html=1;align=center;" parent="1" vertex="1">
          <mxGeometry x="505" y="710" width="90" height="30" as="geometry" />
        </mxCell>
        <mxCell id="XfgdqpQMyzvI71PNZ6HV-39" value="ACTAS" style="whiteSpace=wrap;html=1;align=center;" parent="1" vertex="1">
          <mxGeometry x="730" y="710" width="80" height="30" as="geometry" />
        </mxCell>
        <mxCell id="XfgdqpQMyzvI71PNZ6HV-41" value="" style="endArrow=none;html=1;rounded=0;entryX=0;entryY=0.5;entryDx=0;entryDy=0;" parent="1" source="XfgdqpQMyzvI71PNZ6HV-43" target="XfgdqpQMyzvI71PNZ6HV-39" edge="1">
          <mxGeometry relative="1" as="geometry">
            <mxPoint x="595" y="725" as="sourcePoint" />
            <mxPoint x="755" y="725" as="targetPoint" />
          </mxGeometry>
        </mxCell>
        <mxCell id="XfgdqpQMyzvI71PNZ6HV-42" value="" style="endArrow=none;html=1;rounded=0;entryX=0;entryY=0.5;entryDx=0;entryDy=0;" parent="1" source="XfgdqpQMyzvI71PNZ6HV-35" target="XfgdqpQMyzvI71PNZ6HV-43" edge="1">
          <mxGeometry relative="1" as="geometry">
            <mxPoint x="595" y="725" as="sourcePoint" />
            <mxPoint x="730" y="725" as="targetPoint" />
          </mxGeometry>
        </mxCell>
        <mxCell id="XfgdqpQMyzvI71PNZ6HV-43" value="Relationship" style="shape=rhombus;perimeter=rhombusPerimeter;whiteSpace=wrap;html=1;align=center;" parent="1" vertex="1">
          <mxGeometry x="630" y="700" width="70" height="50" as="geometry" />
        </mxCell>
        <mxCell id="XfgdqpQMyzvI71PNZ6HV-44" value="" style="endArrow=none;html=1;rounded=0;entryX=0;entryY=0.5;entryDx=0;entryDy=0;" parent="1" source="XfgdqpQMyzvI71PNZ6HV-45" target="XfgdqpQMyzvI71PNZ6HV-35" edge="1">
          <mxGeometry relative="1" as="geometry">
            <mxPoint x="348" y="724.6" as="sourcePoint" />
            <mxPoint x="500" y="725" as="targetPoint" />
          </mxGeometry>
        </mxCell>
        <mxCell id="XfgdqpQMyzvI71PNZ6HV-46" value="" style="endArrow=none;html=1;rounded=0;" parent="1" target="XfgdqpQMyzvI71PNZ6HV-45" edge="1">
          <mxGeometry relative="1" as="geometry">
            <mxPoint x="348" y="724.6" as="sourcePoint" />
            <mxPoint x="508" y="724.6" as="targetPoint" />
          </mxGeometry>
        </mxCell>
        <mxCell id="XfgdqpQMyzvI71PNZ6HV-45" value="Relationship" style="shape=rhombus;perimeter=rhombusPerimeter;whiteSpace=wrap;html=1;align=center;" parent="1" vertex="1">
          <mxGeometry x="381" y="702.5" width="66" height="45" as="geometry" />
        </mxCell>
        <mxCell id="XfgdqpQMyzvI71PNZ6HV-47" value="ALINEACIONES" style="whiteSpace=wrap;html=1;align=center;" parent="1" vertex="1">
          <mxGeometry x="250" y="710" width="103" height="30" as="geometry" />
        </mxCell>
        <mxCell id="XfgdqpQMyzvI71PNZ6HV-50" value="" style="endArrow=none;html=1;rounded=0;exitX=1;exitY=0.5;exitDx=0;exitDy=0;" parent="1" source="XfgdqpQMyzvI71PNZ6HV-51" edge="1">
          <mxGeometry relative="1" as="geometry">
            <mxPoint x="303" y="743" as="sourcePoint" />
            <mxPoint x="300" y="810" as="targetPoint" />
            <Array as="points" />
          </mxGeometry>
        </mxCell>
        <mxCell id="XfgdqpQMyzvI71PNZ6HV-52" value="" style="endArrow=none;html=1;rounded=0;exitX=0.5;exitY=1;exitDx=0;exitDy=0;" parent="1" source="XfgdqpQMyzvI71PNZ6HV-47" target="XfgdqpQMyzvI71PNZ6HV-51" edge="1">
          <mxGeometry relative="1" as="geometry">
            <mxPoint x="302" y="740" as="sourcePoint" />
            <mxPoint x="300" y="810" as="targetPoint" />
            <Array as="points" />
          </mxGeometry>
        </mxCell>
        <mxCell id="XfgdqpQMyzvI71PNZ6HV-51" value="" style="triangle;whiteSpace=wrap;html=1;rotation=90;" parent="1" vertex="1">
          <mxGeometry x="286.5" y="740" width="30" height="50" as="geometry" />
        </mxCell>
        <mxCell id="XfgdqpQMyzvI71PNZ6HV-53" value="" style="endArrow=none;html=1;rounded=0;" parent="1" edge="1">
          <mxGeometry relative="1" as="geometry">
            <mxPoint x="210" y="830" as="sourcePoint" />
            <mxPoint x="380" y="830" as="targetPoint" />
            <Array as="points">
              <mxPoint x="210" y="810" />
              <mxPoint x="300" y="810" />
              <mxPoint x="380" y="810" />
            </Array>
          </mxGeometry>
        </mxCell>
        <mxCell id="XfgdqpQMyzvI71PNZ6HV-55" value="TITULARES" style="whiteSpace=wrap;html=1;align=center;" parent="1" vertex="1">
          <mxGeometry x="170" y="820" width="80" height="30" as="geometry" />
        </mxCell>
        <mxCell id="XfgdqpQMyzvI71PNZ6HV-56" value="SUPLENTES" style="whiteSpace=wrap;html=1;align=center;" parent="1" vertex="1">
          <mxGeometry x="340" y="820" width="90" height="30" as="geometry" />
        </mxCell>
        <mxCell id="XfgdqpQMyzvI71PNZ6HV-57" value="" style="endArrow=none;html=1;rounded=0;entryX=0.5;entryY=0;entryDx=0;entryDy=0;" parent="1" edge="1">
          <mxGeometry relative="1" as="geometry">
            <mxPoint x="750" y="590" as="sourcePoint" />
            <mxPoint x="750" y="710" as="targetPoint" />
          </mxGeometry>
        </mxCell>
        <mxCell id="XfgdqpQMyzvI71PNZ6HV-61" value="" style="endArrow=none;html=1;rounded=0;" parent="1" edge="1">
          <mxGeometry relative="1" as="geometry">
            <mxPoint x="810" y="730" as="sourcePoint" />
            <mxPoint x="1160" y="730" as="targetPoint" />
          </mxGeometry>
        </mxCell>
        <mxCell id="XfgdqpQMyzvI71PNZ6HV-65" value="" style="endArrow=none;html=1;rounded=0;exitX=0.5;exitY=1;exitDx=0;exitDy=0;entryX=0.575;entryY=0.047;entryDx=0;entryDy=0;entryPerimeter=0;" parent="1" source="XfgdqpQMyzvI71PNZ6HV-80" target="XfgdqpQMyzvI71PNZ6HV-39" edge="1">
          <mxGeometry relative="1" as="geometry">
            <mxPoint x="800" y="625" as="sourcePoint" />
            <mxPoint x="780" y="700" as="targetPoint" />
            <Array as="points">
              <mxPoint x="968" y="620" />
              <mxPoint x="776" y="620" />
            </Array>
          </mxGeometry>
        </mxCell>
        <mxCell id="XfgdqpQMyzvI71PNZ6HV-66" value="" style="endArrow=none;html=1;rounded=0;" parent="1" source="XfgdqpQMyzvI71PNZ6HV-63" edge="1">
          <mxGeometry relative="1" as="geometry">
            <mxPoint x="1040" y="725" as="sourcePoint" />
            <mxPoint x="1210" y="730" as="targetPoint" />
          </mxGeometry>
        </mxCell>
        <mxCell id="XfgdqpQMyzvI71PNZ6HV-67" value="" style="endArrow=none;html=1;rounded=0;" parent="1" target="XfgdqpQMyzvI71PNZ6HV-63" edge="1">
          <mxGeometry relative="1" as="geometry">
            <mxPoint x="1153.5" y="730" as="sourcePoint" />
            <mxPoint x="1200" y="725" as="targetPoint" />
          </mxGeometry>
        </mxCell>
        <mxCell id="XfgdqpQMyzvI71PNZ6HV-63" value="especifican" style="shape=rhombus;perimeter=rhombusPerimeter;whiteSpace=wrap;html=1;align=center;" parent="1" vertex="1">
          <mxGeometry x="1390" y="710" width="80" height="40" as="geometry" />
        </mxCell>
        <mxCell id="XfgdqpQMyzvI71PNZ6HV-70" value="TEMPORADAS" style="whiteSpace=wrap;html=1;align=center;" parent="1" vertex="1">
          <mxGeometry x="90" y="340" width="90" height="30" as="geometry" />
        </mxCell>
        <mxCell id="XfgdqpQMyzvI71PNZ6HV-71" value="" style="endArrow=none;html=1;rounded=0;" parent="1" source="XfgdqpQMyzvI71PNZ6HV-73" edge="1">
          <mxGeometry relative="1" as="geometry">
            <mxPoint x="130" y="370" as="sourcePoint" />
            <mxPoint x="130" y="460" as="targetPoint" />
          </mxGeometry>
        </mxCell>
        <mxCell id="XfgdqpQMyzvI71PNZ6HV-72" value="CATEGORIAS" style="whiteSpace=wrap;html=1;align=center;" parent="1" vertex="1">
          <mxGeometry x="90" y="460" width="85" height="30" as="geometry" />
        </mxCell>
        <mxCell id="XfgdqpQMyzvI71PNZ6HV-74" value="" style="endArrow=none;html=1;rounded=0;" parent="1" target="XfgdqpQMyzvI71PNZ6HV-73" edge="1">
          <mxGeometry relative="1" as="geometry">
            <mxPoint x="133" y="370" as="sourcePoint" />
            <mxPoint x="130" y="460" as="targetPoint" />
          </mxGeometry>
        </mxCell>
        <mxCell id="XfgdqpQMyzvI71PNZ6HV-73" value="Relationship" style="shape=rhombus;perimeter=rhombusPerimeter;whiteSpace=wrap;html=1;align=center;" parent="1" vertex="1">
          <mxGeometry x="97.5" y="390" width="70" height="40" as="geometry" />
        </mxCell>
        <mxCell id="XfgdqpQMyzvI71PNZ6HV-75" value="" style="endArrow=none;html=1;rounded=0;entryX=0.5;entryY=1;entryDx=0;entryDy=0;" parent="1" source="XfgdqpQMyzvI71PNZ6HV-76" target="XfgdqpQMyzvI71PNZ6HV-27" edge="1">
          <mxGeometry relative="1" as="geometry">
            <mxPoint x="790" y="440" as="sourcePoint" />
            <mxPoint x="840" y="430" as="targetPoint" />
          </mxGeometry>
        </mxCell>
        <mxCell id="XfgdqpQMyzvI71PNZ6HV-77" value="" style="endArrow=none;html=1;rounded=0;entryX=1;entryY=0.5;entryDx=0;entryDy=0;" parent="1" target="XfgdqpQMyzvI71PNZ6HV-76" edge="1">
          <mxGeometry relative="1" as="geometry">
            <mxPoint x="993" y="440" as="sourcePoint" />
            <mxPoint x="790" y="370" as="targetPoint" />
            <Array as="points" />
          </mxGeometry>
        </mxCell>
        <mxCell id="XfgdqpQMyzvI71PNZ6HV-76" value="" style="triangle;whiteSpace=wrap;html=1;rotation=90;" parent="1" vertex="1">
          <mxGeometry x="980" y="382.5" width="25" height="50" as="geometry" />
        </mxCell>
        <mxCell id="XfgdqpQMyzvI71PNZ6HV-79" value="FISIOS" style="whiteSpace=wrap;html=1;align=center;" parent="1" vertex="1">
          <mxGeometry x="820" y="460" width="80" height="30" as="geometry" />
        </mxCell>
        <mxCell id="XfgdqpQMyzvI71PNZ6HV-80" value="&lt;font style=&quot;font-size: 10px;&quot;&gt;ENTRENADORES&lt;/font&gt;" style="whiteSpace=wrap;html=1;align=center;" parent="1" vertex="1">
          <mxGeometry x="925" y="460" width="85" height="30" as="geometry" />
        </mxCell>
        <mxCell id="XfgdqpQMyzvI71PNZ6HV-81" value="" style="endArrow=none;html=1;rounded=0;entryX=0.5;entryY=0;entryDx=0;entryDy=0;" parent="1" target="XfgdqpQMyzvI71PNZ6HV-94" edge="1">
          <mxGeometry relative="1" as="geometry">
            <mxPoint x="850" y="440" as="sourcePoint" />
            <mxPoint x="1050" y="459" as="targetPoint" />
            <Array as="points">
              <mxPoint x="1060" y="440" />
              <mxPoint x="1160" y="440" />
            </Array>
          </mxGeometry>
        </mxCell>
        <mxCell id="XfgdqpQMyzvI71PNZ6HV-84" value="ARBITROS" style="whiteSpace=wrap;html=1;align=center;" parent="1" vertex="1">
          <mxGeometry x="1220" y="460" width="80" height="30" as="geometry" />
        </mxCell>
        <mxCell id="XfgdqpQMyzvI71PNZ6HV-85" value="JUGADORES" style="whiteSpace=wrap;html=1;align=center;" parent="1" vertex="1">
          <mxGeometry x="1380" y="460" width="80" height="30" as="geometry" />
        </mxCell>
        <mxCell id="XfgdqpQMyzvI71PNZ6HV-87" value="" style="endArrow=none;html=1;rounded=0;" parent="1" edge="1">
          <mxGeometry relative="1" as="geometry">
            <mxPoint x="970" y="440" as="sourcePoint" />
            <mxPoint x="1430" y="457" as="targetPoint" />
            <Array as="points">
              <mxPoint x="1090" y="440" />
              <mxPoint x="1365" y="440" />
              <mxPoint x="1430" y="440" />
            </Array>
          </mxGeometry>
        </mxCell>
        <mxCell id="XfgdqpQMyzvI71PNZ6HV-94" value="DELEGADOS" style="whiteSpace=wrap;html=1;align=center;" parent="1" vertex="1">
          <mxGeometry x="1120" y="460" width="80" height="30" as="geometry" />
        </mxCell>
        <mxCell id="XfgdqpQMyzvI71PNZ6HV-96" value="" style="endArrow=none;html=1;rounded=0;entryX=0.375;entryY=0;entryDx=0;entryDy=0;entryPerimeter=0;" parent="1" target="XfgdqpQMyzvI71PNZ6HV-79" edge="1">
          <mxGeometry relative="1" as="geometry">
            <mxPoint x="850" y="440" as="sourcePoint" />
            <mxPoint x="800" y="470" as="targetPoint" />
            <Array as="points" />
          </mxGeometry>
        </mxCell>
        <mxCell id="XfgdqpQMyzvI71PNZ6HV-97" value="" style="endArrow=none;html=1;rounded=0;entryX=0.418;entryY=0.033;entryDx=0;entryDy=0;entryPerimeter=0;" parent="1" target="XfgdqpQMyzvI71PNZ6HV-80" edge="1">
          <mxGeometry relative="1" as="geometry">
            <mxPoint x="960" y="440" as="sourcePoint" />
            <mxPoint x="1120" y="440" as="targetPoint" />
          </mxGeometry>
        </mxCell>
        <mxCell id="XfgdqpQMyzvI71PNZ6HV-98" value="" style="endArrow=none;html=1;rounded=0;entryX=0.375;entryY=0.14;entryDx=0;entryDy=0;entryPerimeter=0;" parent="1" target="XfgdqpQMyzvI71PNZ6HV-84" edge="1">
          <mxGeometry relative="1" as="geometry">
            <mxPoint x="1250" y="440" as="sourcePoint" />
            <mxPoint x="1320" y="440" as="targetPoint" />
          </mxGeometry>
        </mxCell>
        <mxCell id="XfgdqpQMyzvI71PNZ6HV-99" value="" style="endArrow=none;html=1;rounded=0;" parent="1" source="XfgdqpQMyzvI71PNZ6HV-101" edge="1">
          <mxGeometry relative="1" as="geometry">
            <mxPoint x="680" y="480" as="sourcePoint" />
            <mxPoint x="820" y="480" as="targetPoint" />
          </mxGeometry>
        </mxCell>
        <mxCell id="XfgdqpQMyzvI71PNZ6HV-102" value="" style="endArrow=none;html=1;rounded=0;exitX=0.5;exitY=1;exitDx=0;exitDy=0;" parent="1" source="XfgdqpQMyzvI71PNZ6HV-103" target="XfgdqpQMyzvI71PNZ6HV-101" edge="1">
          <mxGeometry relative="1" as="geometry">
            <mxPoint x="765" y="440" as="sourcePoint" />
            <mxPoint x="820" y="480" as="targetPoint" />
          </mxGeometry>
        </mxCell>
        <mxCell id="XfgdqpQMyzvI71PNZ6HV-101" value="Relationship" style="shape=rhombus;perimeter=rhombusPerimeter;whiteSpace=wrap;html=1;align=center;" parent="1" vertex="1">
          <mxGeometry x="740" y="460" width="60" height="40" as="geometry" />
        </mxCell>
        <mxCell id="XfgdqpQMyzvI71PNZ6HV-103" value="ESPECIALIDAD" style="whiteSpace=wrap;html=1;align=center;" parent="1" vertex="1">
          <mxGeometry x="725" y="415" width="90" height="25" as="geometry" />
        </mxCell>
        <mxCell id="XfgdqpQMyzvI71PNZ6HV-105" value="" style="endArrow=none;html=1;rounded=0;entryX=0.5;entryY=1;entryDx=0;entryDy=0;" parent="1" source="XfgdqpQMyzvI71PNZ6HV-108" target="XfgdqpQMyzvI71PNZ6HV-79" edge="1">
          <mxGeometry relative="1" as="geometry">
            <mxPoint x="750" y="590" as="sourcePoint" />
            <mxPoint x="940" y="590" as="targetPoint" />
            <Array as="points">
              <mxPoint x="860" y="590" />
            </Array>
          </mxGeometry>
        </mxCell>
        <mxCell id="XfgdqpQMyzvI71PNZ6HV-107" value="" style="endArrow=none;html=1;rounded=0;entryX=0.62;entryY=1.073;entryDx=0;entryDy=0;entryPerimeter=0;" parent="1" target="XfgdqpQMyzvI71PNZ6HV-94" edge="1">
          <mxGeometry relative="1" as="geometry">
            <mxPoint x="793.5" y="710" as="sourcePoint" />
            <mxPoint x="1153.5" y="490" as="targetPoint" />
            <Array as="points">
              <mxPoint x="793.5" y="660" />
              <mxPoint x="1000" y="660" />
              <mxPoint x="1000" y="610" />
              <mxPoint x="1170" y="610" />
            </Array>
          </mxGeometry>
        </mxCell>
        <mxCell id="XfgdqpQMyzvI71PNZ6HV-109" value="" style="endArrow=none;html=1;rounded=0;" parent="1" edge="1">
          <mxGeometry relative="1" as="geometry">
            <mxPoint x="750" y="590" as="sourcePoint" />
            <mxPoint x="860" y="590" as="targetPoint" />
            <Array as="points" />
          </mxGeometry>
        </mxCell>
        <mxCell id="XfgdqpQMyzvI71PNZ6HV-108" value="Relationship" style="shape=rhombus;perimeter=rhombusPerimeter;whiteSpace=wrap;html=1;align=center;" parent="1" vertex="1">
          <mxGeometry x="835" y="517.5" width="50" height="40" as="geometry" />
        </mxCell>
        <mxCell id="XfgdqpQMyzvI71PNZ6HV-110" value="Relationship" style="shape=rhombus;perimeter=rhombusPerimeter;whiteSpace=wrap;html=1;align=center;" parent="1" vertex="1">
          <mxGeometry x="930" y="517.5" width="65" height="42.5" as="geometry" />
        </mxCell>
        <mxCell id="XfgdqpQMyzvI71PNZ6HV-111" value="Relationship" style="shape=rhombus;perimeter=rhombusPerimeter;whiteSpace=wrap;html=1;align=center;" parent="1" vertex="1">
          <mxGeometry x="1260" y="535" width="70" height="40" as="geometry" />
        </mxCell>
        <mxCell id="XfgdqpQMyzvI71PNZ6HV-113" value="Relationship" style="shape=rhombus;perimeter=rhombusPerimeter;whiteSpace=wrap;html=1;align=center;" parent="1" vertex="1">
          <mxGeometry x="1136" y="530" width="70" height="45" as="geometry" />
        </mxCell>
        <mxCell id="XfgdqpQMyzvI71PNZ6HV-114" value="" style="line;strokeWidth=1;rotatable=0;dashed=0;labelPosition=right;align=left;verticalAlign=middle;spacingTop=0;spacingLeft=6;points=[];portConstraint=eastwest;" parent="1" vertex="1">
          <mxGeometry x="1010" y="470" width="30" height="10" as="geometry" />
        </mxCell>
        <mxCell id="XfgdqpQMyzvI71PNZ6HV-116" value="Relationship" style="shape=rhombus;perimeter=rhombusPerimeter;whiteSpace=wrap;html=1;align=center;" parent="1" vertex="1">
          <mxGeometry x="1028.5" y="454.5" width="55" height="41" as="geometry" />
        </mxCell>
        <mxCell id="XfgdqpQMyzvI71PNZ6HV-117" value="" style="endArrow=none;html=1;rounded=0;exitX=0.5;exitY=1;exitDx=0;exitDy=0;entryX=0.5;entryY=0;entryDx=0;entryDy=0;" parent="1" source="XfgdqpQMyzvI71PNZ6HV-116" target="XfgdqpQMyzvI71PNZ6HV-118" edge="1">
          <mxGeometry relative="1" as="geometry">
            <mxPoint x="1030" y="520" as="sourcePoint" />
            <mxPoint x="1048" y="570" as="targetPoint" />
          </mxGeometry>
        </mxCell>
        <mxCell id="XfgdqpQMyzvI71PNZ6HV-118" value="NIVEL" style="whiteSpace=wrap;html=1;align=center;" parent="1" vertex="1">
          <mxGeometry x="1020" y="535" width="72" height="25" as="geometry" />
        </mxCell>
        <mxCell id="XfgdqpQMyzvI71PNZ6HV-121" value="" style="endArrow=none;html=1;rounded=0;entryX=0.43;entryY=0.018;entryDx=0;entryDy=0;entryPerimeter=0;" parent="1" target="XfgdqpQMyzvI71PNZ6HV-63" edge="1">
          <mxGeometry relative="1" as="geometry">
            <mxPoint x="1420" y="490" as="sourcePoint" />
            <mxPoint x="1510" y="490" as="targetPoint" />
          </mxGeometry>
        </mxCell>
        <mxCell id="XfgdqpQMyzvI71PNZ6HV-122" value="" style="endArrow=none;html=1;rounded=0;exitX=0.94;exitY=1.047;exitDx=0;exitDy=0;exitPerimeter=0;" parent="1" source="XfgdqpQMyzvI71PNZ6HV-84" edge="1">
          <mxGeometry relative="1" as="geometry">
            <mxPoint x="1260" y="490" as="sourcePoint" />
            <mxPoint x="1295" y="530" as="targetPoint" />
          </mxGeometry>
        </mxCell>
        <mxCell id="XfgdqpQMyzvI71PNZ6HV-123" value="" style="endArrow=none;html=1;rounded=0;" parent="1" source="XfgdqpQMyzvI71PNZ6HV-124" edge="1">
          <mxGeometry relative="1" as="geometry">
            <mxPoint x="1460" y="475" as="sourcePoint" />
            <mxPoint x="1500" y="470" as="targetPoint" />
          </mxGeometry>
        </mxCell>
        <mxCell id="XfgdqpQMyzvI71PNZ6HV-125" value="" style="endArrow=none;html=1;rounded=0;" parent="1" source="XfgdqpQMyzvI71PNZ6HV-85" target="XfgdqpQMyzvI71PNZ6HV-124" edge="1">
          <mxGeometry relative="1" as="geometry">
            <mxPoint x="1460" y="475" as="sourcePoint" />
            <mxPoint x="1620" y="475" as="targetPoint" />
          </mxGeometry>
        </mxCell>
        <mxCell id="XfgdqpQMyzvI71PNZ6HV-124" value="Relationship" style="shape=rhombus;perimeter=rhombusPerimeter;whiteSpace=wrap;html=1;align=center;" parent="1" vertex="1">
          <mxGeometry x="1500" y="450" width="60" height="45.5" as="geometry" />
        </mxCell>
        <mxCell id="XfgdqpQMyzvI71PNZ6HV-126" value="" style="endArrow=none;html=1;rounded=0;exitX=0.5;exitY=1;exitDx=0;exitDy=0;" parent="1" source="XfgdqpQMyzvI71PNZ6HV-124" edge="1">
          <mxGeometry relative="1" as="geometry">
            <mxPoint x="1540" y="500" as="sourcePoint" />
            <mxPoint x="1530" y="530" as="targetPoint" />
          </mxGeometry>
        </mxCell>
        <mxCell id="XfgdqpQMyzvI71PNZ6HV-127" value="CATEGORIAS" style="whiteSpace=wrap;html=1;align=center;" parent="1" vertex="1">
          <mxGeometry x="1490" y="535" width="90" height="35" as="geometry" />
        </mxCell>
        <mxCell id="XfgdqpQMyzvI71PNZ6HV-128" value="" style="endArrow=none;html=1;rounded=0;entryX=0.5;entryY=0;entryDx=0;entryDy=0;" parent="1" target="XfgdqpQMyzvI71PNZ6HV-133" edge="1">
          <mxGeometry relative="1" as="geometry">
            <mxPoint x="1360" y="540" as="sourcePoint" />
            <mxPoint x="1360" y="600" as="targetPoint" />
            <Array as="points">
              <mxPoint x="1360" y="530" />
              <mxPoint x="1360" y="500" />
            </Array>
          </mxGeometry>
        </mxCell>
        <mxCell id="XfgdqpQMyzvI71PNZ6HV-132" value="" style="endArrow=none;html=1;rounded=0;exitX=1;exitY=0.5;exitDx=0;exitDy=0;entryX=0.5;entryY=0;entryDx=0;entryDy=0;" parent="1" source="XfgdqpQMyzvI71PNZ6HV-84" target="XfgdqpQMyzvI71PNZ6HV-129" edge="1">
          <mxGeometry relative="1" as="geometry">
            <mxPoint x="1300" y="475" as="sourcePoint" />
            <mxPoint x="1360" y="640" as="targetPoint" />
            <Array as="points">
              <mxPoint x="1360" y="475" />
            </Array>
          </mxGeometry>
        </mxCell>
        <mxCell id="XfgdqpQMyzvI71PNZ6HV-129" value="Relationship" style="shape=rhombus;perimeter=rhombusPerimeter;whiteSpace=wrap;html=1;align=center;" parent="1" vertex="1">
          <mxGeometry x="1330" y="490" width="60" height="40" as="geometry" />
        </mxCell>
        <mxCell id="XfgdqpQMyzvI71PNZ6HV-133" value="NIVEL" style="whiteSpace=wrap;html=1;align=center;" parent="1" vertex="1">
          <mxGeometry x="1325" y="610" width="70" height="20" as="geometry" />
        </mxCell>
        <mxCell id="XfgdqpQMyzvI71PNZ6HV-135" value="EVALUADOR" style="whiteSpace=wrap;html=1;align=center;" parent="1" vertex="1">
          <mxGeometry x="1180" y="640" width="80" height="30" as="geometry" />
        </mxCell>
        <mxCell id="XfgdqpQMyzvI71PNZ6HV-136" value="" style="endArrow=none;html=1;rounded=0;" parent="1" source="XfgdqpQMyzvI71PNZ6HV-137" edge="1">
          <mxGeometry relative="1" as="geometry">
            <mxPoint x="1240" y="640" as="sourcePoint" />
            <mxPoint x="1280" y="490" as="targetPoint" />
            <Array as="points">
              <mxPoint x="1240" y="520" />
              <mxPoint x="1280" y="520" />
            </Array>
          </mxGeometry>
        </mxCell>
        <mxCell id="XfgdqpQMyzvI71PNZ6HV-139" value="" style="endArrow=none;html=1;rounded=0;" parent="1" target="XfgdqpQMyzvI71PNZ6HV-137" edge="1">
          <mxGeometry relative="1" as="geometry">
            <mxPoint x="1240" y="640" as="sourcePoint" />
            <mxPoint x="1280" y="490" as="targetPoint" />
            <Array as="points" />
          </mxGeometry>
        </mxCell>
        <mxCell id="XfgdqpQMyzvI71PNZ6HV-137" value="Relationship" style="shape=rhombus;perimeter=rhombusPerimeter;whiteSpace=wrap;html=1;align=center;" parent="1" vertex="1">
          <mxGeometry x="1206" y="565" width="70" height="40" as="geometry" />
        </mxCell>
        <mxCell id="XfgdqpQMyzvI71PNZ6HV-140" value="" style="endArrow=none;html=1;rounded=0;exitX=0.833;exitY=1;exitDx=0;exitDy=0;exitPerimeter=0;entryX=0;entryY=0.5;entryDx=0;entryDy=0;" parent="1" source="XfgdqpQMyzvI71PNZ6HV-35" target="XfgdqpQMyzvI71PNZ6HV-142" edge="1">
          <mxGeometry relative="1" as="geometry">
            <mxPoint x="570" y="760" as="sourcePoint" />
            <mxPoint x="1000" y="790" as="targetPoint" />
            <Array as="points">
              <mxPoint x="630" y="775" />
              <mxPoint x="740" y="775" />
            </Array>
          </mxGeometry>
        </mxCell>
        <mxCell id="XfgdqpQMyzvI71PNZ6HV-141" value="" style="endArrow=none;html=1;rounded=0;entryX=0;entryY=0.5;entryDx=0;entryDy=0;" parent="1" target="XfgdqpQMyzvI71PNZ6HV-94" edge="1">
          <mxGeometry relative="1" as="geometry">
            <mxPoint x="1000" y="790" as="sourcePoint" />
            <mxPoint x="1190" y="490" as="targetPoint" />
            <Array as="points">
              <mxPoint x="1000" y="690" />
              <mxPoint x="1120" y="690" />
              <mxPoint x="1120" y="510" />
            </Array>
          </mxGeometry>
        </mxCell>
        <mxCell id="XfgdqpQMyzvI71PNZ6HV-142" value="&lt;font style=&quot;font-size: 10px;&quot;&gt;Delegado de campo&lt;/font&gt;" style="shape=rhombus;perimeter=rhombusPerimeter;whiteSpace=wrap;html=1;align=center;" parent="1" vertex="1">
          <mxGeometry x="960" y="750" width="90" height="50" as="geometry" />
        </mxCell>
        <mxCell id="XfgdqpQMyzvI71PNZ6HV-145" value="" style="endArrow=none;html=1;rounded=0;entryX=0.5;entryY=1;entryDx=0;entryDy=0;" parent="1" target="XfgdqpQMyzvI71PNZ6HV-135" edge="1">
          <mxGeometry relative="1" as="geometry">
            <mxPoint x="1090" y="810" as="sourcePoint" />
            <mxPoint x="1200" y="780" as="targetPoint" />
            <Array as="points">
              <mxPoint x="1220" y="810" />
            </Array>
          </mxGeometry>
        </mxCell>
        <mxCell id="XfgdqpQMyzvI71PNZ6HV-146" value="" style="endArrow=none;html=1;rounded=0;" parent="1" edge="1">
          <mxGeometry relative="1" as="geometry">
            <mxPoint x="560" y="740" as="sourcePoint" />
            <mxPoint x="1090" y="810" as="targetPoint" />
            <Array as="points">
              <mxPoint x="620" y="810" />
            </Array>
          </mxGeometry>
        </mxCell>
        <mxCell id="XfgdqpQMyzvI71PNZ6HV-147" value="Pueden haber" style="shape=rhombus;perimeter=rhombusPerimeter;whiteSpace=wrap;html=1;align=center;" parent="1" vertex="1">
          <mxGeometry x="1176" y="770" width="88" height="40" as="geometry" />
        </mxCell>
        <mxCell id="HHV7EombX1dZiq7-O5zj-2" value="Dorsal" style="ellipse;whiteSpace=wrap;html=1;align=center;" vertex="1" parent="1">
          <mxGeometry x="1390" y="780" width="80" height="30" as="geometry" />
        </mxCell>
        <mxCell id="HHV7EombX1dZiq7-O5zj-3" value="" style="endArrow=none;html=1;rounded=0;entryX=0.5;entryY=0;entryDx=0;entryDy=0;" edge="1" parent="1" target="HHV7EombX1dZiq7-O5zj-2">
          <mxGeometry relative="1" as="geometry">
            <mxPoint x="1430" y="750" as="sourcePoint" />
            <mxPoint x="1590" y="750" as="targetPoint" />
          </mxGeometry>
        </mxCell>
      </root>
    </mxGraphModel>
  </diagram>
</mxfile>
